<svg xmlns="http://www.w3.org/2000/svg" viewBox="0 0 16 16" class="design-iconfont">
  <path d="M10.6666667,1.33333333 L14,4.66666667 L14,14.0053333 C13.9996321,14.3706855 13.7033523,14.6666667 13.338,14.6666667 L2.662,14.6666667 C2.2977037,14.6641281 2.0029056,14.3696269 2,14.0053333 L2,1.99466667 C2,1.62933333 2.29666667,1.33333333 2.662,1.33333333 L10.6666667,1.33333333 Z M7.33333333,4.66666667 L7.33333333,11.3333333 L8.66666667,11.3333333 L8.66666667,4.66666667 L7.33333333,4.66666667 Z M10,7.33333333 L10,11.3333333 L11.3333333,11.3333333 L11.3333333,7.33333333 L10,7.33333333 Z M4.66666667,8.66666667 L4.66666667,11.3333333 L6,11.3333333 L6,8.66666667 L4.66666667,8.66666667 Z" fill="#000" fill-rule="nonzero"/>
</svg>
