<svg xmlns="http://www.w3.org/2000/svg" viewBox="0 0 16 16" class="design-iconfont">
  <path d="M12,5.33333333 L13.3333333,5.33333333 C13.7015232,5.33333333 14,5.63181017 14,6 L14,14 C14,14.3681898 13.7015232,14.6666667 13.3333333,14.6666667 L2.66666667,14.6666667 C2.29847683,14.6666667 2,14.3681898 2,14 L2,6 C2,5.63181017 2.29847683,5.33333333 2.66666667,5.33333333 L4,5.33333333 L4,4.66666667 C4,2.45752767 5.790861,0.666666667 8,0.666666667 C10.209139,0.666666667 12,2.45752767 12,4.66666667 L12,5.33333333 Z M7.33333333,10.488 L7.33333333,12 L8.66666667,12 L8.66666667,10.488 C9.18929069,10.1862629 9.44409173,9.57111875 9.2879011,8.9882074 C9.13171048,8.40529605 8.60347424,7.99996613 8,7.99996613 C7.39652576,7.99996613 6.86828952,8.40529605 6.7120989,8.9882074 C6.55590827,9.57111875 6.81070931,10.1862629 7.33333333,10.488 Z M10.6666667,5.33333333 L10.6666667,4.66666667 C10.6666667,3.19390733 9.47275933,2 8,2 C6.52724067,2 5.33333333,3.19390733 5.33333333,4.66666667 L5.33333333,5.33333333 L10.6666667,5.33333333 L10.6666667,5.33333333 Z" fill="#000" fill-rule="nonzero"/>
</svg>
