<svg xmlns="http://www.w3.org/2000/svg" viewBox="0 0 16 16" class="design-iconfont">
  <path d="M11.3333333,0 C11.7013333,0 12,0.298666667 12,0.666666667 L12,3.17133333 L6.00066667,9.17133333 L5.99666667,11.9966667 L8.82733333,12.0006667 L12,8.828 L12,12.6666667 C12,13.0346667 11.7013333,13.3333333 11.3333333,13.3333333 L0.666666667,13.3333333 C0.298666667,13.3333333 0,13.0346667 0,12.6666667 L0,0.666666667 C0,0.298666667 0.298666667,0 0.666666667,0 L11.3333333,0 Z M12.5186667,4.53866667 L13.4613333,5.48133333 L8.276,10.6666667 L7.332,10.6653333 L7.33333333,9.724 L12.5186667,4.53866667 Z M5.0605,1.89866667 L4,2.95966667 L2.94,1.89866667 L2.232,2.60616667 L3.293,3.66666667 L2,3.66666667 L2,4.66666667 L3.5,4.66666667 L3.5,5.16666667 L2,5.16666667 L2,6.16666667 L3.5,6.16666667 L3.5,7.16666667 L4.5,7.16666667 L4.5,6.16666667 L6,6.16666667 L6,5.16666667 L4.5,5.16666667 L4.5,4.66666667 L6,4.66666667 L6,3.66666667 L4.707,3.66666667 L5.768,2.60616667 L5.0605,1.89866667 Z" transform="translate(2 1.333333)" fill="#000" fill-rule="nonzero"/>
</svg>
