<svg xmlns="http://www.w3.org/2000/svg" viewBox="0 0 16 16" class="design-iconfont">
  <path d="M14.6666667,8.75066667 C13.1359664,7.65036726 11.0447926,7.76814912 9.64732646,9.03337261 C8.24986028,10.2985961 7.92545253,12.3678084 8.86866667,14 L2,14 C1.63181017,14 1.33333333,13.7015232 1.33333333,13.3333333 L1.33333333,2.66666667 C1.33333333,2.29847683 1.63181017,2 2,2 L6.94266667,2 L8.276,3.33333333 L14,3.33333333 C14.3681898,3.33333333 14.6666667,3.63181017 14.6666667,4 L14.6666667,8.75066667 Z M13.3333333,11.3333333 L15.3333333,11.3333333 L15.3333333,12.6666667 L13.3333333,12.6666667 L13.3333333,15 L10,12 L13.3333333,9 L13.3333333,11.3333333 Z" fill="#000" fill-rule="nonzero"/>
</svg>
