<?xml version="1.0" standalone="no"?><!DOCTYPE svg PUBLIC "-//W3C//DTD SVG 1.1//EN" "http://www.w3.org/Graphics/SVG/1.1/DTD/svg11.dtd"><svg t="1685001298221" class="icon" viewBox="0 0 1024 1024" version="1.1" xmlns="http://www.w3.org/2000/svg" p-id="7220" xmlns:xlink="http://www.w3.org/1999/xlink" width="200" height="200"><path d="M161.298286 198.070857c16.713143 0 30.555429 12.16 32.932571 27.977143l0.365714 4.864-0.036571 498.194286 57.453714-51.510857c12.251429-10.971429 30.537143-11.282286 43.081143-1.462858l3.949714 3.657143c11.154286 12.068571 11.465143 30.08 1.499429 42.459429l-3.693714 3.913143L128 877.714286V230.912c0-18.139429 14.902857-32.841143 33.298286-32.841143zM896 146.285714c0 12.525714-0.384 26.642286-1.097143 42.24-0.731429 15.616-1.609143 31.725714-2.706286 48.292572-1.097143 16.566857-2.084571 32.841143-3.181714 48.786285-1.060571 15.945143-2.651429 30.537143-4.809143 43.648h-27.830857l-55.588571-134.180571h-147.181715v608.658286c18.340571 3.163429 49.737143 6.253714 65.572572 9.417143 15.908571 3.108571 31.213714 7.460571 46.043428 13.129142v27.136H411.995429v-27.190857a596.077714 596.077714 0 0 1 47.104-13.129143c15.872-3.785143 47.177143-6.857143 65.536-9.417142V195.053714h-148.150858l-56.082285 134.180572h-26.441143a551.204571 551.204571 0 0 1-5.302857-42.715429 2045.915429 2045.915429 0 0 1-6.308572-97.499428c-0.731429-15.890286-1.097143-30.208-1.097143-42.733715H896z" fill="#d1ac64" p-id="7221"></path></svg>