<?xml version="1.0" standalone="no"?><!DOCTYPE svg PUBLIC "-//W3C//DTD SVG 1.1//EN" "http://www.w3.org/Graphics/SVG/1.1/DTD/svg11.dtd"><svg t="1684996593989" class="icon" viewBox="0 0 1157 1024" version="1.1" xmlns="http://www.w3.org/2000/svg" p-id="4367" id="mx_n_1684996593990" xmlns:xlink="http://www.w3.org/1999/xlink" width="225.9765625" height="200"><path d="M270.291262 866.174757a45.980583 45.980583 0 0 1-41.631068-67.106796l303.223301-612.038835a48.466019 48.466019 0 0 1 41.631068-26.097087 46.601942 46.601942 0 0 1 41.631068 25.475728l310.679612 615.145631a46.664078 46.664078 0 1 1-83.262136 42.252427L574.135922 311.300971l-262.213592 531.262136a45.359223 45.359223 0 0 1-41.631068 23.61165z" fill="#d1ac64" p-id="4368"></path><path d="M773.592233 698.407767h-391.456311a46.601942 46.601942 0 1 1 0-93.203884h391.456311a46.601942 46.601942 0 0 1 0 93.203884zM1110.990291 1024H46.601942a46.601942 46.601942 0 1 1 0-93.203883h1064.388349a46.601942 46.601942 0 0 1 0 93.203883zM1110.990291 93.203883H46.601942a46.601942 46.601942 0 0 1 0-93.203883h1064.388349a46.601942 46.601942 0 0 1 0 93.203883z" fill="#d1ac64" p-id="4369"></path></svg>