<svg xmlns="http://www.w3.org/2000/svg" viewBox="0 0 18 18" class="design-iconfont">
  <g fill="#EDBB62" fill-rule="nonzero">
    <path d="M15.014671,4.12621083 C14.0945891,1.71509972 11.7501882,0 9.00400484,0 C6.25782145,0 3.91342055,1.71310541 2.99333863,4.12421652 C1.26366496,4.57692308 -0.0099855659,6.14643875 0,8.00911681 C0.0121124716,10.0911681 1.6393316,11.7843305 3.68842235,11.965812 C3.78284124,11.9737892 3.86319774,11.9 3.86319774,11.8062678 L3.86319774,10.6017094 C3.86319774,10.5219373 3.80293037,10.4541311 3.72257387,10.4441595 C3.18016749,10.3763533 2.6678948,10.1410256 2.27414795,9.75612536 C1.79200895,9.28746439 1.5268325,8.65726496 1.5268325,7.98917379 C1.5268325,7.43076923 1.70964354,6.9042735 2.05316758,6.46552707 C2.38865596,6.03874644 2.8607504,5.72962963 3.38105874,5.59401709 L4.14243658,5.39458689 L4.42167542,4.66267806 C4.59444189,4.20797721 4.83551139,3.78119658 5.13885718,3.3962963 C5.43818514,3.01339031 5.79376266,2.67834758 6.19152733,2.3991453 C7.01719037,1.82279202 7.98950402,1.51766382 9.00400484,1.51766382 C10.0185057,1.51766382 10.9908193,1.82279202 11.8164823,2.4011396 C12.2162559,2.68034188 12.5698245,3.01538462 12.8691525,3.3982906 C13.1724983,3.78319088 13.4135678,4.20997151 13.5863343,4.66467236 L13.8635642,5.39458689 L14.6229331,5.59401709 C15.7117637,5.88119658 16.4731415,6.86438746 16.4731415,7.98717949 C16.4731415,8.65726496 16.2079651,9.28547009 15.7258261,9.75413105 C15.3340881,10.137037 14.8238244,10.374359 14.281418,10.4421652 C14.2010615,10.4521368 14.142803,10.519943 14.142803,10.5997151 L14.142803,11.8062678 C14.142803,11.9 14.2251684,11.9737892 14.3195873,11.965812 C16.3626513,11.7823362 17.9858526,10.0911681 18,8.01310541 C18.0119685,6.15042735 16.7403269,4.58091168 15.014671,4.12621083 L15.014671,4.12621083 Z" transform="translate(0 2)"/>
    <path d="M6.28594622,9.85982906 C6.32210665,9.19173789 6.60134548,8.56951567 7.07946666,8.09287749 C7.58973044,7.58433048 8.28481416,7.2991453 9.00802266,7.2991453 C9.73524899,7.2991453 10.4202882,7.58034188 10.9365787,8.09287749 C10.9647034,8.12079772 10.9908193,8.14871795 11.0189441,8.17863248 L10.516716,8.56951567 C10.4102436,8.65128205 10.446404,8.81880342 10.5769833,8.85071225 L12.5497354,9.32934473 C12.650181,9.35327635 12.7486177,9.27749288 12.7486177,9.17578348 L12.7586623,7.15555556 C12.7586623,7.02193732 12.605985,6.94615385 12.4995126,7.02991453 L12.0334449,7.39287749 C11.2981829,6.55527066 10.217388,6.02478632 9.01003158,6.02478632 C6.85245955,6.02478632 5.09265219,7.72193732 5.00426004,9.84786325 C5.00024222,9.93760684 5.07256307,10.0133903 5.16497304,10.0133903 L6.12724213,10.0133903 C6.21161646,10.011396 6.2819284,9.94558405 6.28594622,9.85982906 L6.28594622,9.85982906 Z M12.8370099,10.011396 L11.8747408,10.011396 C11.7903665,10.011396 11.7200545,10.077208 11.7140278,10.162963 C11.6778674,10.8310541 11.3986285,11.4532764 10.9205074,11.9299145 C10.4102436,12.4384615 9.71515986,12.7236467 8.99195136,12.7236467 C8.26472504,12.7236467 7.57968587,12.4424501 7.06339536,11.9299145 C7.03527058,11.9019943 7.00915472,11.8740741 6.98102995,11.8441595 L7.48325807,11.4532764 C7.58973044,11.37151 7.55357001,11.2039886 7.4229907,11.1720798 L5.45023862,10.6934473 C5.34979299,10.6695157 5.25135628,10.7452991 5.25135628,10.8470085 L5.24332063,12.8692308 C5.24332063,13.002849 5.39599798,13.0786325 5.50247034,12.9948718 L5.96853805,12.6319088 C6.70380002,13.4695157 7.78459495,14 8.99195136,14 C11.1495234,14 12.9093307,12.302849 12.9977229,10.1769231 C13.0017407,10.0871795 12.9294199,10.011396 12.8370099,10.011396 Z" transform="translate(0 2)"/>
  </g>
</svg>
